# xmcd
#
# Track frame offsets:
#	150
#	9970
#	24175
#	33892
#
# Disc length: 637 seconds
#
# Revision: 1
# Processed by: cddbd v1.5.2PL0 Copyright (c) Steve Scherf et al.
# Submitted via: audiograbber 1.83.01
#
DISCID=19027b04
DTITLE=De Dröppcher - Country Lady (MCD)
DYEAR=1991
DGENRE=Country
TTITLE0=Country Lady
TTITLE1=Trucker Song
TTITLE2=Country Lady (Instrumental)
TTITLE3=Trucker Song (Instrumental)
EXTD=
EXTT0=
EXTT1=
EXTT2=
EXTT3=
PLAYORDER=
